<svg version="1.2" xmlns="http://www.w3.org/2000/svg" viewBox="0 0 303 304" width="304" height="305" style="background-color:black">
	<g id="Layer 1">
		<path id="&lt;Compound Path&gt;" fill-rule="evenodd" fill="#ffffff" d="m206.4 169q-1.4 0.3-2.8 0.3c-4 0-7.7-1.8-10.3-4.6-6.6-30.7-19.8-52.9-37.4-62.5q-4.3-2.4-8.9-3.7c1.5-3.1 4.1-5.6 7.6-7 9.3-3.6 19.5-2.8 28.6 2.2 16 8.7 28.1 29.5 34.1 58.7 1.6 7.6-3.3 15-10.9 16.6zm32.1 14.9c-7.2 28.9-5.3 41.4-61.6 49.5-63.2 41.3-96.3-18.8-153.7-106.9-4.3-6.5-2.3-17.3 4.2-21.5 8.9-5.7 18.6-3.8 24.2 4.8 3.9 5.9 30.1 46.3 30 45.4-1-14.2 1.8-29.3 11.6-34.3 8.9-4.7 19.6-2.9 28.7 2.1 15.9 8.7 28 29.6 34.1 58.8 1.5 7.5-3.3 14.9-10.9 16.5q-1.4 0.3-2.9 0.3c-6.5 0-12.3-4.6-13.7-11.2-3-14.9-7.5-25.2-12-31.8-2.8-4.1-6.5-2.4-4.9 1.5 3.9 9.3 7.8 20.8 10.1 31.7 2 9.8 10.6 16.8 20.5 16.8q2.2 0 4.3-0.4c5.5-1.2 10.2-4.4 13.3-9.1 1.6-2.4 2.6-5 3.1-7.7 3 1.6 6.4 2.5 10 2.5q2.2 0 4.3-0.4c5.5-1.1 10.2-4.4 13.3-9 1.5-2.4 2.6-5.1 3.1-7.8 3 1.6 6.4 2.6 10 2.6q2.1 0 4.2-0.5c5.5-1.1 10.3-4.3 13.3-9 3.1-4.7 4.2-10.3 3.1-15.8-1.8-8.5-4.1-16.3-6.8-23.4 15.4-20.5 58.4-31.7 67.7-6.4 6 16.2-33.3 9.2-46.6 62.7zm-62.7-0.3q-1.5 0.3-2.9 0.3c-4 0-7.7-1.7-10.3-4.5-6.5-30.8-19.8-53-37.4-62.6q-4.3-2.3-8.9-3.6c1.5-3.1 4.1-5.7 7.6-7 9.4-3.6 19.5-2.9 28.7 2.1 15.9 8.7 28 29.6 34 58.8 1.6 7.6-3.3 15-10.8 16.5z"/>
	</g>
</svg>
