<?xml version="1.0" standalone="no"?>
<!DOCTYPE svg PUBLIC "-//W3C//DTD SVG 20010904//EN"
 "http://www.w3.org/TR/2001/REC-SVG-20010904/DTD/svg10.dtd">
<svg version="1.0" xmlns="http://www.w3.org/2000/svg"
 width="610.000000pt" height="610.000000pt" viewBox="0 0 610.000000 610.000000"
 preserveAspectRatio="xMidYMid meet">
<metadata>
Created by potrace 1.14, written by Peter Selinger 2001-2017
</metadata>
<g transform="translate(0.000000,610.000000) scale(0.100000,-0.100000)"
fill="#000000" stroke="none">
<path d="M3195 4289 c-118 -32 -188 -77 -221 -140 -14 -28 -13 -29 13 -35 48
-11 155 -65 232 -117 78 -52 221 -188 261 -247 13 -19 27 -37 30 -40 28 -22
158 -253 203 -360 8 -19 23 -55 34 -80 22 -49 80 -223 86 -255 2 -11 7 -27 10
-35 4 -8 15 -53 26 -99 14 -60 26 -90 44 -106 141 -131 376 -70 444 115 23 64
23 116 -2 220 -3 14 -8 36 -11 50 -13 70 -91 314 -116 363 -10 20 -16 37 -14
37 3 0 -11 31 -30 70 -18 38 -34 74 -34 80 0 5 -3 10 -7 10 -5 0 -17 19 -28
43 -11 23 -23 47 -27 52 -5 6 -33 46 -64 89 -136 194 -309 326 -499 381 -82
24 -250 26 -330 4z"/>
<path d="M674 4045 c-150 -46 -230 -144 -241 -298 -6 -88 10 -137 85 -250 29
-43 52 -81 52 -83 0 -3 5 -10 11 -17 5 -7 29 -41 52 -77 22 -36 75 -117 117
-180 41 -63 77 -119 79 -125 2 -5 19 -31 38 -57 18 -26 33 -50 33 -53 0 -3 6
-13 14 -22 17 -22 317 -467 332 -495 6 -10 21 -30 32 -43 11 -13 26 -34 33
-46 7 -13 17 -29 23 -36 16 -19 25 -30 101 -133 63 -85 197 -255 265 -335 49
-58 276 -283 335 -332 174 -145 401 -265 550 -290 17 -2 50 -9 75 -13 67 -13
234 -9 319 7 77 15 178 44 241 70 69 28 265 129 320 165 22 14 68 25 150 34
14 2 35 5 46 8 12 2 38 7 57 10 46 7 202 42 245 55 17 5 32 8 32 6 0 -2 16 3
35 11 19 8 35 11 35 8 0 -4 6 -2 12 4 7 6 18 11 23 12 14 3 32 9 53 17 9 3 22
7 27 8 27 7 136 63 185 96 105 70 178 158 224 266 25 59 84 256 90 298 2 11 6
29 9 40 3 11 8 31 11 45 3 14 10 43 16 65 6 22 13 51 16 64 3 13 9 32 15 43 5
10 7 18 5 18 -17 0 126 340 146 348 4 2 8 9 8 16 0 24 147 211 221 281 89 85
169 143 326 236 65 39 120 75 121 80 2 5 8 9 13 9 19 0 68 63 77 99 20 82 -65
229 -172 298 -85 54 -162 75 -291 79 -180 5 -356 -36 -527 -122 -40 -20 -83
-42 -95 -48 -13 -6 -23 -14 -23 -18 0 -5 -7 -8 -15 -8 -8 0 -15 -4 -15 -10 0
-5 -7 -10 -15 -10 -8 0 -15 -3 -15 -7 -1 -5 -24 -26 -53 -47 -29 -22 -73 -63
-98 -92 l-45 -53 38 -115 c53 -162 99 -350 103 -419 1 -32 -3 -82 -9 -110 -12
-49 -43 -126 -56 -137 -3 -3 -16 -21 -30 -41 -29 -44 -126 -111 -195 -135 -74
-25 -195 -23 -268 4 -32 12 -59 22 -61 22 -2 0 -11 -27 -20 -60 -9 -33 -21
-60 -27 -60 -5 0 -9 -7 -9 -15 0 -23 -120 -138 -171 -162 -109 -53 -271 -55
-366 -5 -20 11 -23 8 -39 -41 -80 -242 -354 -360 -583 -249 -70 34 -160 121
-190 187 -13 28 -37 102 -53 165 -16 63 -30 122 -32 130 -2 8 -9 26 -14 40 -5
14 -10 29 -10 33 0 9 -49 163 -61 192 -5 11 -15 38 -24 60 -8 22 -24 63 -35
90 -12 28 -19 60 -17 70 2 11 4 23 4 26 1 4 10 9 20 12 21 5 81 -31 81 -50 0
-6 3 -13 8 -15 25 -11 157 -308 177 -398 2 -8 13 -51 24 -95 12 -44 24 -95 27
-113 14 -86 75 -167 156 -208 26 -13 48 -21 48 -18 0 4 6 2 13 -2 28 -21 135
-5 199 28 125 66 172 221 117 394 -5 17 -12 41 -14 53 -2 13 -7 31 -10 41 -3
10 -8 27 -10 37 -5 24 -53 173 -64 198 -5 11 -15 36 -22 55 -23 64 -109 239
-152 308 -160 258 -377 428 -612 478 -57 12 -167 13 -222 3 -83 -16 -175 -63
-218 -112 -51 -60 -55 -65 -55 -77 0 -5 -4 -10 -10 -10 -5 0 -9 -3 -8 -7 1 -5
-5 -24 -13 -43 -42 -96 -65 -234 -64 -382 0 -54 -1 -98 -2 -98 -1 0 -32 46
-69 103 -37 56 -71 104 -76 105 -4 2 -8 7 -8 12 0 7 -150 241 -177 276 -14 17
-33 48 -40 64 -4 8 -9 17 -13 20 -3 3 -52 77 -109 165 -151 234 -183 268 -281
305 -47 17 -146 20 -196 5z"/>
<path d="M2670 4012 c-64 -8 -183 -44 -222 -68 -40 -24 -98 -90 -98 -112 0 -7
59 -31 90 -37 3 0 34 -15 70 -34 85 -43 193 -126 268 -206 69 -73 172 -206
172 -223 0 -5 3 -12 8 -14 40 -18 208 -406 263 -608 7 -25 14 -49 15 -55 2 -5
6 -23 9 -40 3 -16 8 -37 11 -45 3 -8 8 -26 10 -40 6 -35 67 -86 126 -106 119
-39 256 10 323 116 22 35 49 112 47 135 -6 70 -41 238 -59 285 -3 8 -7 22 -9
31 -4 18 -62 190 -90 264 -11 28 -22 52 -26 53 -5 2 -8 8 -8 14 0 21 -84 177
-142 262 -83 122 -163 210 -257 279 -58 43 -191 112 -232 121 -13 3 -44 10
-69 16 -45 11 -155 18 -200 12z"/>
</g>
</svg>
